<svg width="14" height="14" viewBox="0 0 14 14" fill="none" xmlns="http://www.w3.org/2000/svg">
<path d="M11.4642 0.0360917C9.93046 -0.227587 8.17979 0.97411 6.87531 2.96676C5.12727 1.18474 3.12416 0.24379 1.67609 0.714803C-0.440756 1.40335 -0.569989 4.849 1.38801 8.41109C2.93849 11.2318 5.33327 13.2776 7.31379 13.666C7.37248 13.6807 7.43187 13.6946 7.4925 13.705C7.73595 13.7469 7.98491 13.7489 8.23664 13.7197C8.41994 13.7023 8.59752 13.6693 8.76691 13.6142C8.77692 13.611 8.78629 13.6059 8.79621 13.6025C10.6987 13.018 12.6494 10.6315 13.5394 7.56832C14.6358 3.79424 13.7069 0.421904 11.4642 0.0360917Z" fill="#121212" style="fill:#121212;fill:color(display-p3 0.0706 0.0706 0.0706);fill-opacity:1;"/>
</svg>
