<svg width="20" height="20" viewBox="0 0 20 20" fill="none" xmlns="http://www.w3.org/2000/svg">
<path fill-rule="evenodd" clip-rule="evenodd" d="M9.18092 2.33496C7.73446 2.48962 6.36128 3.05042 5.2201 3.95256C4.07891 4.8547 3.21629 6.06134 2.73193 7.43304C2.24757 8.80474 2.16125 10.2855 2.48294 11.7042C2.80462 13.1229 3.52119 14.4216 4.54982 15.4502C5.57845 16.4789 6.87716 17.1954 8.29585 17.5171C9.71454 17.8388 11.1953 17.7525 12.567 17.2681C13.9387 16.7838 15.1453 15.9211 16.0475 14.7799C16.9496 13.6388 17.5104 12.2656 17.6651 10.8191C17.1371 11.49 16.4729 12.0414 15.7163 12.4369C14.9596 12.8324 14.1278 13.063 13.2756 13.1137C12.4233 13.1643 11.57 13.0337 10.7719 12.7305C9.9738 12.4273 9.24902 11.9584 8.64533 11.3547C8.04164 10.751 7.57275 10.0262 7.26956 9.22814C6.96638 8.43003 6.83578 7.57674 6.88639 6.72449C6.93699 5.87224 7.16765 5.0404 7.56315 4.28378C7.95866 3.52717 8.51002 2.86297 9.18092 2.33496ZM1.04175 9.99996C1.04175 5.05246 5.05258 1.04163 10.0001 1.04163C10.5976 1.04163 10.8959 1.51746 10.9476 1.89663C10.9967 2.26163 10.8617 2.72579 10.4426 2.97913C9.82004 3.35484 9.29117 3.86731 8.89603 4.47772C8.5009 5.08812 8.24987 5.78045 8.16196 6.50225C8.07404 7.22405 8.15156 7.95639 8.38862 8.64379C8.62569 9.33119 9.01609 9.95563 9.53025 10.4698C10.0444 10.984 10.6688 11.3744 11.3563 11.6114C12.0437 11.8485 12.776 11.926 13.4978 11.8381C14.2196 11.7502 14.9119 11.4991 15.5223 11.104C16.1327 10.7089 16.6452 10.18 17.0209 9.55746C17.2742 9.13829 17.7384 9.00329 18.1034 9.05246C18.4826 9.10413 18.9584 9.40246 18.9584 9.99996C18.9584 14.9475 14.9476 18.9583 10.0001 18.9583C5.05258 18.9583 1.04175 14.9475 1.04175 9.99996Z" fill="black" style="fill:black;fill-opacity:1;"/>
</svg>
