<svg width="64" height="64" viewBox="0 0 64 64" fill="none" xmlns="http://www.w3.org/2000/svg">
<g clip-path="url(#clip0_2348_54591)">
<path d="M32 0C23.515 0 15.37 3.3735 9.375 9.3725C3.37386 15.3739 0.00171724 23.5129 0 32C0 40.4835 3.375 48.6285 9.375 54.6275C15.37 60.6265 23.515 64 32 64C40.485 64 48.63 60.6265 54.625 54.6275C60.625 48.6285 64 40.4835 64 32C64 23.5165 60.625 15.3715 54.625 9.3725C48.63 3.3735 40.485 0 32 0Z" fill="url(#paint0_linear_2348_54591)"/>
<path d="M14.4852 31.6641C23.8152 27.6001 30.0352 24.9207 33.1452 23.6261C42.0352 19.9296 43.8802 19.2876 45.0852 19.2658C45.3502 19.2616 45.9402 19.3271 46.3252 19.6383C46.6452 19.9008 46.7352 20.2558 46.7802 20.5051C46.8202 20.7541 46.8752 21.3216 46.8302 21.7646C46.3502 26.8246 44.2652 39.1036 43.2052 44.7711C42.7602 47.1691 41.8752 47.9731 41.0202 48.0516C39.1602 48.2226 37.7502 46.8236 35.9502 45.6441C33.1352 43.7976 31.5452 42.6486 28.8102 40.8471C25.6502 38.7651 27.7002 37.6206 29.5002 35.7506C29.9702 35.2611 38.1602 27.8136 38.3152 27.1381C38.3352 27.0536 38.3552 26.7386 38.1652 26.5726C37.9802 26.4061 37.7052 26.4631 37.5052 26.5081C37.2202 26.5721 32.7252 29.5461 24.0052 35.4296C22.7302 36.3066 21.5752 36.7341 20.5352 36.7116C19.3952 36.6871 17.1952 36.0656 15.5602 35.5346C13.5602 34.8831 11.9652 34.5386 12.1052 33.4321C12.1752 32.8561 12.9702 32.2666 14.4852 31.6641Z" fill="white"/>
</g>
<defs>
<linearGradient id="paint0_linear_2348_54591" x1="3200" y1="0" x2="3200" y2="6400" gradientUnits="userSpaceOnUse">
<stop stop-color="#2AABEE"/>
<stop offset="1" stop-color="#229ED9"/>
</linearGradient>
<clipPath id="clip0_2348_54591">
<rect width="64" height="64" fill="white"/>
</clipPath>
</defs>
</svg>
