<svg width="20" height="20" viewBox="0 0 20 20" fill="none" xmlns="http://www.w3.org/2000/svg">
<path fill-rule="evenodd" clip-rule="evenodd" d="M10.0001 1.04163C10.1658 1.04163 10.3248 1.10747 10.442 1.22468C10.5592 1.34189 10.6251 1.50087 10.6251 1.66663V2.49996C10.6251 2.66572 10.5592 2.82469 10.442 2.9419C10.3248 3.05911 10.1658 3.12496 10.0001 3.12496C9.83432 3.12496 9.67535 3.05911 9.55814 2.9419C9.44093 2.82469 9.37508 2.66572 9.37508 2.49996V1.66663C9.37508 1.50087 9.44093 1.34189 9.55814 1.22468C9.67535 1.10747 9.83432 1.04163 10.0001 1.04163ZM3.66591 3.66579C3.7831 3.54875 3.94196 3.48301 4.10758 3.48301C4.27321 3.48301 4.43206 3.54875 4.54925 3.66579L4.87675 3.99246C4.99065 4.11028 5.05373 4.26813 5.05238 4.432C5.05103 4.59588 4.98538 4.75267 4.86955 4.8686C4.75372 4.98454 4.597 5.05034 4.43312 5.05184C4.26925 5.05334 4.11134 4.99042 3.99341 4.87663L3.66591 4.54913C3.54887 4.43194 3.48313 4.27308 3.48313 4.10746C3.48313 3.94183 3.54887 3.78298 3.66591 3.66579ZM16.3342 3.66579C16.4513 3.78298 16.517 3.94183 16.517 4.10746C16.517 4.27308 16.4513 4.43194 16.3342 4.54913L16.0067 4.87663C15.8883 4.98703 15.7316 5.04713 15.5696 5.04427C15.4077 5.04142 15.2532 4.97582 15.1387 4.86131C15.0242 4.7468 14.9586 4.59231 14.9558 4.43039C14.9529 4.26848 15.013 4.11177 15.1234 3.99329L15.4509 3.66579C15.5681 3.54875 15.727 3.48301 15.8926 3.48301C16.0582 3.48301 16.2171 3.54875 16.3342 3.66579ZM10.0001 5.62496C8.83976 5.62496 7.72696 6.0859 6.90649 6.90637C6.08602 7.72684 5.62508 8.83964 5.62508 9.99996C5.62508 11.1603 6.08602 12.2731 6.90649 13.0936C7.72696 13.914 8.83976 14.375 10.0001 14.375C11.1604 14.375 12.2732 13.914 13.0937 13.0936C13.9141 12.2731 14.3751 11.1603 14.3751 9.99996C14.3751 8.83964 13.9141 7.72684 13.0937 6.90637C12.2732 6.0859 11.1604 5.62496 10.0001 5.62496ZM4.37508 9.99996C4.37508 8.50812 4.96771 7.07738 6.02261 6.02248C7.0775 4.96759 8.50824 4.37496 10.0001 4.37496C11.4919 4.37496 12.9227 4.96759 13.9776 6.02248C15.0324 7.07738 15.6251 8.50812 15.6251 9.99996C15.6251 11.4918 15.0324 12.9225 13.9776 13.9774C12.9227 15.0323 11.4919 15.625 10.0001 15.625C8.50824 15.625 7.0775 15.0323 6.02261 13.9774C4.96771 12.9225 4.37508 11.4918 4.37508 9.99996ZM1.04175 9.99996C1.04175 9.8342 1.1076 9.67523 1.22481 9.55802C1.34202 9.44081 1.50099 9.37496 1.66675 9.37496H2.50008C2.66584 9.37496 2.82481 9.44081 2.94202 9.55802C3.05923 9.67523 3.12508 9.8342 3.12508 9.99996C3.12508 10.1657 3.05923 10.3247 2.94202 10.4419C2.82481 10.5591 2.66584 10.625 2.50008 10.625H1.66675C1.50099 10.625 1.34202 10.5591 1.22481 10.4419C1.1076 10.3247 1.04175 10.1657 1.04175 9.99996ZM16.8751 9.99996C16.8751 9.8342 16.9409 9.67523 17.0581 9.55802C17.1754 9.44081 17.3343 9.37496 17.5001 9.37496H18.3334C18.4992 9.37496 18.6581 9.44081 18.7754 9.55802C18.8926 9.67523 18.9584 9.8342 18.9584 9.99996C18.9584 10.1657 18.8926 10.3247 18.7754 10.4419C18.6581 10.5591 18.4992 10.625 18.3334 10.625H17.5001C17.3343 10.625 17.1754 10.5591 17.0581 10.4419C16.9409 10.3247 16.8751 10.1657 16.8751 9.99996ZM15.1234 15.1233C15.2406 15.0063 15.3995 14.9405 15.5651 14.9405C15.7307 14.9405 15.8896 15.0063 16.0067 15.1233L16.3342 15.4508C16.3957 15.508 16.4449 15.577 16.4791 15.6537C16.5132 15.7303 16.5316 15.8131 16.5331 15.897C16.5346 15.9809 16.5191 16.0643 16.4877 16.1421C16.4562 16.2199 16.4095 16.2906 16.3501 16.35C16.2908 16.4093 16.2201 16.4561 16.1422 16.4876C16.0644 16.519 15.9811 16.5344 15.8971 16.533C15.8132 16.5315 15.7305 16.5131 15.6538 16.4789C15.5771 16.4448 15.5081 16.3955 15.4509 16.3341L15.1234 16.0066C15.0064 15.8894 14.9406 15.7306 14.9406 15.565C14.9406 15.3993 15.0064 15.2405 15.1234 15.1233ZM4.87675 15.1233C4.99379 15.2405 5.05953 15.3993 5.05953 15.565C5.05953 15.7306 4.99379 15.8894 4.87675 16.0066L4.54925 16.3341C4.49203 16.3955 4.42303 16.4448 4.34636 16.4789C4.2697 16.5131 4.18694 16.5315 4.10302 16.533C4.0191 16.5344 3.93574 16.519 3.85792 16.4876C3.78009 16.4561 3.7094 16.4093 3.65005 16.35C3.5907 16.2906 3.54391 16.2199 3.51248 16.1421C3.48104 16.0643 3.46561 15.9809 3.46709 15.897C3.46857 15.8131 3.48694 15.7303 3.5211 15.6537C3.55526 15.577 3.60451 15.508 3.66591 15.4508L3.99258 15.1233C4.05062 15.0652 4.11954 15.0191 4.1954 14.9877C4.27125 14.9563 4.35255 14.9401 4.43466 14.9401C4.51677 14.9401 4.59808 14.9563 4.67393 14.9877C4.74979 15.0191 4.81871 15.0652 4.87675 15.1233ZM10.0001 16.875C10.1658 16.875 10.3248 16.9408 10.442 17.058C10.5592 17.1752 10.6251 17.3342 10.6251 17.5V18.3333C10.6251 18.4991 10.5592 18.658 10.442 18.7752C10.3248 18.8924 10.1658 18.9583 10.0001 18.9583C9.83432 18.9583 9.67535 18.8924 9.55814 18.7752C9.44093 18.658 9.37508 18.4991 9.37508 18.3333V17.5C9.37508 17.3342 9.44093 17.1752 9.55814 17.058C9.67535 16.9408 9.83432 16.875 10.0001 16.875Z" fill="black" style="fill:black;fill-opacity:1;"/>
</svg>
