<svg width="24" height="24" viewBox="0 0 24 24" fill="none" xmlns="http://www.w3.org/2000/svg">
<rect width="24" height="24" rx="12" fill="white" style="fill:white;fill-opacity:1;"/>
<path d="M16.4635 5.53605C14.9301 5.2726 13.1799 6.47372 11.8756 8.46573C10.1276 6.68389 8.1234 5.74377 6.6754 6.21476C4.55904 6.9037 4.43044 10.3492 6.38829 13.911C7.94114 16.736 10.3406 18.7831 12.3229 19.1669C12.3788 19.1807 12.4351 19.1941 12.4928 19.204C12.736 19.2458 12.9844 19.2488 13.2359 19.2196C13.4193 19.2023 13.5967 19.1693 13.7662 19.1142C13.7811 19.1093 13.7955 19.1027 13.8102 19.0976C15.7082 18.5055 17.6519 16.1238 18.5397 13.0683C19.6361 9.29409 18.7064 5.92165 16.4635 5.53605Z" fill="#121212" style="fill:#121212;fill:color(display-p3 0.0706 0.0706 0.0706);fill-opacity:1;"/>
</svg>
